<svg width="500" height="500" viewBox="0 0 500 500" fill="none" xmlns="http://www.w3.org/2000/svg">
<g clip-path="url(#clip0_11_79)">
<path d="M24.4535 213.731C24.4535 196.277 28.6898 180.433 37.1625 166.199C45.8047 151.965 57.3276 140.611 71.7312 132.138C86.1348 123.496 102.064 119.175 119.517 119.175H266.434V382.507H212.802V172.807H119.517C108.164 172.807 98.4203 176.874 90.2865 185.008C82.1526 192.973 78.0857 202.716 78.0857 214.239V286.935C78.0857 298.458 82.1526 308.371 90.2865 316.674C98.4203 324.808 108.164 328.875 119.517 328.875H182.3V382.507H119.517C102.064 382.507 86.1348 378.271 71.7312 369.798C57.3276 361.156 45.8047 349.633 37.1625 335.229C28.6898 320.826 24.4535 304.897 24.4535 287.443V213.731Z" fill="white"/>
</g>
<path d="M404.25 172.5H324.574C309.869 172.5 297.922 160.631 297.825 145.926C297.727 131.084 309.732 119 324.574 119H408.89C450.372 119 484 152.628 484 194.11V215.882C484 250.189 456.189 278 421.882 278H386.765C371.853 278 359.765 265.912 359.765 251C359.765 236.088 371.853 224 386.765 224H404.25C418.471 224 430 212.471 430 198.25C430 184.029 418.471 172.5 404.25 172.5Z" fill="white" stroke="white" stroke-linejoin="round"/>
<path d="M404.25 329.5H324.324C309.521 329.5 297.533 341.521 297.574 356.324C297.614 371.068 309.579 383 324.324 383H404.5C448.407 383 484 347.407 484 303.5V286C484 251.758 456.242 224 422 224H387C372.088 224 360 236.088 360 251C360 265.912 372.088 278 387 278H404.25C418.471 278 430 289.529 430 303.75C430 317.971 418.471 329.5 404.25 329.5Z" fill="white" stroke="white" stroke-linejoin="round"/>
<rect width="35" height="54" transform="translate(297 119)" fill="white"/>
<rect width="35" height="55" transform="translate(359 223.5)" fill="white"/>
<rect width="35" height="54" transform="translate(297 329)" fill="white"/>
<defs>
<clipPath id="clip0_11_79">
<rect width="243" height="264" fill="white" transform="translate(24 119)"/>
</clipPath>
</defs>
</svg>
